<svg width="512" height="512" viewBox="0 0 512 512" fill="none" xmlns="http://www.w3.org/2000/svg">
<circle cx="256" cy="256" r="255.5" fill="white" stroke="#33346B"/>
<path d="M264.092 43C259.368 63.4206 245.313 67.535 245.313 81.8517C245.313 89.0348 254.858 94.315 264.092 94.315C273.533 94.315 282.503 89.3766 282.503 82.5566C282.503 68.8138 268.973 63.3819 264.092 43H264.092ZM254.837 68.6464C250.396 77.5691 254.026 86.9061 263.452 89.8368C265.863 90.5867 268.49 90.7481 271.059 90.5787C252.617 96.4603 241.548 81.1497 254.836 68.6463L254.837 68.6464Z" fill="#288A6F"/>
<path d="M181.309 426.905C184.645 434.802 192.377 446.424 192.377 446.424C192.377 446.424 194.618 453.117 199.373 452.501C202.367 452.113 208.048 452.172 207.477 450.062C206.604 446.828 196.298 427.548 196.298 427.548L190.478 411.981L264.658 422.098L266.083 415.278L188.266 404.288L188.627 382.816L280.687 395.208L282.519 386.44L190.459 374.048L200.519 352.128L281.066 366.211L283.102 356.469L203.93 345.812L217.614 325.618L276.532 333.549L278.161 325.755L223.845 318.444L256.306 280.258L297.837 229.302C297.837 229.302 313.5 200.877 317.657 183.647C320.944 170.025 321.76 159.795 314.524 146.896C309.438 137.832 303.839 126.405 296.438 118.669C288.688 110.567 284.398 102.464 276.291 107.866C265.214 115.247 272.875 114.314 284.396 121.37C289.971 124.784 304.021 148.472 306.483 161.134C308.599 172.019 303.738 178.771 301.314 189.584C297.919 204.735 284.396 223.426 284.396 223.426L250.991 260.998C250.991 260.998 232.587 281.802 221.397 295.788C211.275 308.44 204.41 314.787 196.139 328.738C190.672 337.961 183.482 353.076 183.482 353.076C183.482 353.076 177.585 368.764 176.146 379.133C174.842 388.522 173.962 393.691 174.946 403.011C175.945 412.485 177.475 417.829 181.309 426.905Z" fill="#07924F"/>
<path d="M218.946 233.757C226.142 246.325 239.264 265.368 239.264 265.368L249.576 251.872L224.563 212.673L276.782 220.138L279.053 208.97L219.205 200.421L215.452 180.343L290.333 192.188L292.377 182.137L214.911 167.624L218.786 148.718L285.534 161.631L288.033 149.347L224.147 137.914L248.124 105.761C248.124 105.761 228.259 115.755 219.115 124.622C211.213 132.286 207.781 137.348 203.642 146.555C199.154 156.536 198.427 162.714 198.191 173.357C197.935 184.871 199.515 191.478 203.216 202.797C207.302 215.289 212.127 221.845 218.946 233.757Z" fill="#33346B"/>
<path d="M271.157 273.808L259.789 287.519L276.167 315.561L285.247 337.732C287.241 344.478 291.498 359.393 292.572 365.081C293.647 370.77 293.006 381.089 292.552 385.538L288.383 403.078L274.455 426.087L256.191 454.91L275.19 441.403L290.461 425.504L300.779 410.809L307.096 396.259L309.215 377.771L308.235 357.351L304.353 339.082L298.763 327.012L288.731 305.898L278.796 286.827L271.157 273.808Z" fill="#2E4375"/>
</svg>
