<svg width="512" height="512" viewBox="0 0 512 512" fill="none" xmlns="http://www.w3.org/2000/svg">
<rect width="512" height="512" fill="white"/>
<path d="M264.092 45C259.368 65.4206 245.313 69.535 245.313 83.8517C245.313 91.0348 254.858 96.315 264.092 96.315C273.533 96.315 282.503 91.3766 282.503 84.5566C282.503 70.8138 268.973 65.3819 264.092 45H264.092ZM254.837 70.6464C250.396 79.5691 254.026 88.9061 263.452 91.8368C265.863 92.5867 268.49 92.7481 271.059 92.5787C252.617 98.4603 241.548 83.1497 254.836 70.6463L254.837 70.6464Z" fill="#288A6F"/>
<path d="M181.309 428.905C184.645 436.802 192.377 448.424 192.377 448.424C192.377 448.424 194.618 455.117 199.373 454.501C202.367 454.113 208.048 454.172 207.477 452.062C206.604 448.828 196.298 429.548 196.298 429.548L190.478 413.981L264.658 424.098L266.083 417.278L188.266 406.288L188.627 384.816L280.687 397.208L282.519 388.44L190.459 376.048L200.519 354.128L281.066 368.211L283.102 358.469L203.93 347.812L217.614 327.618L276.532 335.549L278.161 327.755L223.845 320.444L256.306 282.258L297.837 231.302C297.837 231.302 313.5 202.877 317.657 185.647C320.944 172.025 321.76 161.795 314.524 148.896C309.438 139.832 303.839 128.405 296.438 120.669C288.688 112.567 284.398 104.464 276.291 109.866C265.214 117.247 272.875 116.314 284.396 123.37C289.971 126.784 304.021 150.472 306.483 163.134C308.599 174.019 303.738 180.771 301.314 191.584C297.919 206.735 284.396 225.426 284.396 225.426L250.991 262.998C250.991 262.998 232.587 283.802 221.397 297.788C211.275 310.44 204.41 316.787 196.139 330.738C190.672 339.961 183.482 355.076 183.482 355.076C183.482 355.076 177.585 370.764 176.146 381.133C174.842 390.522 173.962 395.691 174.946 405.011C175.945 414.485 177.475 419.829 181.309 428.905Z" fill="#07924F"/>
<path d="M218.946 235.757C226.142 248.325 239.264 267.368 239.264 267.368L249.576 253.872L224.563 214.673L276.782 222.138L279.053 210.97L219.205 202.421L215.452 182.343L290.333 194.188L292.377 184.137L214.911 169.624L218.786 150.718L285.534 163.631L288.033 151.347L224.147 139.914L248.124 107.761C248.124 107.761 228.259 117.755 219.115 126.622C211.213 134.286 207.781 139.348 203.642 148.555C199.154 158.536 198.427 164.714 198.191 175.357C197.935 186.871 199.515 193.478 203.216 204.797C207.302 217.289 212.127 223.845 218.946 235.757Z" fill="#33346B"/>
<path d="M271.157 275.808L259.789 289.519L276.167 317.561L285.247 339.732C287.241 346.478 291.498 361.393 292.572 367.081C293.647 372.77 293.006 383.089 292.552 387.538L288.383 405.078L274.455 428.087L256.191 456.91L275.19 443.403L290.461 427.504L300.779 412.809L307.096 398.259L309.215 379.771L308.235 359.351L304.353 341.082L298.763 329.012L288.731 307.898L278.796 288.827L271.157 275.808Z" fill="#2E4375"/>
</svg>
